<svg id="Layer_1" data-name="Layer 1"
    xmlns="http://www.w3.org/2000/svg" viewBox="0 0 512 512">
    <defs>
        <style>.cls-1{fill:#a3adba;}.cls-2{fill:#183153;}</style>
    </defs>
    <path class="cls-1" d="M426.59,506.66H89.43a17.25,17.25,0,0,1-17.19-17.2V22.54A17.25,17.25,0,0,1,89.43,5.34H426.59a17.25,17.25,0,0,1,17.19,17.2V489.46A17.25,17.25,0,0,1,426.59,506.66ZM319.05,94.12v-22a5.46,5.46,0,0,0-5.45-5.44H203.42A5.46,5.46,0,0,0,198,72.12v22a5.46,5.46,0,0,0,5.45,5.44H313.6A5.46,5.46,0,0,0,319.05,94.12Z"/>
    <path class="cls-2" d="M319.05,226.28a60.54,60.54,0,1,1-60.54-60.54A60.55,60.55,0,0,1,319.05,226.28Zm46.51,180.88v-57A30.21,30.21,0,0,0,335.43,320H174.73a27.41,27.41,0,0,0-27.33,27.33v57a8.11,8.11,0,0,0,8.08,8.08h204.8A5.29,5.29,0,0,0,365.56,407.16Z"/>
</svg>