<svg id="Layer_1" data-name="Layer 1" xmlns="http://www.w3.org/2000/svg" viewBox="0 0 512 512"><defs><style>.cls-1{fill:#a3adba;}.cls-2{fill:#183153;}</style></defs><path class="cls-1" d="M459.1,504.65H202.75V9.11H459.27A23.49,23.49,0,0,1,482.76,32.6V481A23.66,23.66,0,0,1,459.1,504.65Z"/><path class="cls-2" d="M77,480.12V33.33a26,26,0,0,1,26-26h99.79v497.3H101.52A24.54,24.54,0,0,1,77,480.12Zm0-123H26.48A9.45,9.45,0,0,0,17,366.59V395.5a8.68,8.68,0,0,0,8.68,8.68H77Zm0-124.66H26.48A9.45,9.45,0,0,0,17,241.93v28.91a8.68,8.68,0,0,0,8.68,8.68H77ZM77,108H26.48A9.45,9.45,0,0,0,17,117.49V146.4a8.68,8.68,0,0,0,8.68,8.68H77Z"/></svg>