<svg id="Layer_1" data-name="Layer 1" xmlns="http://www.w3.org/2000/svg" viewBox="0 0 512 512"><defs><style>.cls-1{fill:#a3adba;}.cls-2{fill:#183153;}</style></defs><path class="cls-1" d="M485.15,481.55H26.85A17.36,17.36,0,0,1,9.49,464.19V295.52h493V464.19A17.36,17.36,0,0,1,485.15,481.55ZM318.45,354.38V295.52H192.24v56.81a9.57,9.57,0,0,0,9.57,9.58H310.92A7.53,7.53,0,0,0,318.45,354.38Z"/><path class="cls-2" d="M502.51,157.8V292.23H9.49V157.8a45.69,45.69,0,0,1,45.69-45.69h77.89v-47a47.66,47.66,0,0,1,47.66-47.66H329a51.28,51.28,0,0,1,51.27,51.28v43.38h76.58A45.69,45.69,0,0,1,502.51,157.8Zm-171.57-93H180.4v47.33H330.94Z"/></svg>